# xmcd
#
# Track frame offsets:
#       150
#       16007
#       31018
#       47046
#       62764
#       74487
#       90315
#       105818
#       120174
#       135116
#       153169
#       169693
#       182231
#       193775
#       211625
#       225920
#       238684
#       250150
#       262815
#       279778
#       295960
#
# Disc length: 4187 seconds
#
# Revision: 0
# Processed by: cddbd v1.5.2PL0 Copyright (c) Steve Scherf et al.
# Submitted via: WaveLab 6.11
#
DISCID=fa105915
DTITLE=BALDO - le nouveau Romantique
DYEAR=2014
DGENRE=
TTITLE0=EL BANDIDO
TTITLE1=TOUTES LES FEMMES
TTITLE2=ENVIE DE TOI
TTITLE3=UN GARCON T'A FAIT PLEURER
TTITLE4=J'AI PLEURE
TTITLE5=SI C 'EST CA LA VIE
TTITLE6=ON SE RETROUVE PAR HASARD
TTITLE7=COEUR ROMANTIQUE
TTITLE8=MACUMBA
TTITLE9=DANS LES YEUX D'OPHELIE
TTITLE10=LACHE MOI
TTITLE11=COMME UNE VAGUE D'ETE
TTITLE12=OH CAROLE
TTITLE13=PAPA SOLITAIRE
TTITLE14=COMBIEN DE ROSES
TTITLE15=UN AMOUR D'ETE
TTITLE16=L'HIDALGO
TTITLE17=VOULEZ VOUS DANSER GRAND MERE
TTITLE18=DONNEZ MOI DES ROSES 
TTITLE19=REVIENS
TTITLE20=TOUTES CES FILLES DE REVES
EXTD=
EXTT0=
EXTT1=
EXTT2=
EXTT3=
EXTT4=
EXTT5=
EXTT6=
EXTT7=
EXTT8=
EXTT9=
EXTT10=
EXTT11=
EXTT12=
EXTT13=
EXTT14=
EXTT15=
EXTT16=
EXTT17=
EXTT18=
EXTT19=
EXTT20=
PLAYORDER=
